<svg id="Layer_1" data-name="Layer 1" xmlns="http://www.w3.org/2000/svg" viewBox="0 0 452.86 60.4">
    <defs>
        <style>.cls-1{fill:cyan;}</style>
    </defs>
    <title>cocktail-full-logo-white</title>
    <path class="cls-1"
          d="M103.87,18.54A8.06,8.06,0,0,0,97,21.89q-2.45,3.35-2.45,9.35,0,12.48,9.36,12.48a29.61,29.61,0,0,0,9.52-2v6.63a26.46,26.46,0,0,1-10.26,1.92q-8.14,0-12.45-4.94T86.37,31.19A23.12,23.12,0,0,1,88.49,21a15.34,15.34,0,0,1,6.08-6.71,18,18,0,0,1,9.3-2.33,25.1,25.1,0,0,1,10.92,2.62L112.24,21A41.41,41.41,0,0,0,108,19.28,12.56,12.56,0,0,0,103.87,18.54Z"/>
    <path class="cls-1"
          d="M146.62,35.48q0,7-3.67,10.89T132.72,50.3a14.32,14.32,0,0,1-7.24-1.8,12,12,0,0,1-4.82-5.17A17.37,17.37,0,0,1,119,35.48q0-7,3.65-10.87t10.25-3.88a14.41,14.41,0,0,1,7.24,1.79,11.91,11.91,0,0,1,4.83,5.13A17.17,17.17,0,0,1,146.62,35.48Zm-19.72,0a12,12,0,0,0,1.39,6.41,5,5,0,0,0,4.53,2.17,4.89,4.89,0,0,0,4.48-2.16q1.37-2.16,1.36-6.41t-1.38-6.35a5.85,5.85,0,0,0-9,0Q126.9,31.22,126.9,35.48Z"/>
    <path class="cls-1"
          d="M164.64,50.3q-13.32,0-13.32-14.62,0-7.27,3.62-11.11t10.38-3.84a19.79,19.79,0,0,1,8.88,1.94l-2.3,6c-1.22-.49-2.36-.89-3.42-1.21a11,11,0,0,0-3.16-.47q-6.07,0-6.07,8.63,0,8.36,6.07,8.37a13.79,13.79,0,0,0,4.16-.6,15.12,15.12,0,0,0,3.83-1.87v6.66a12.47,12.47,0,0,1-3.81,1.66A21.49,21.49,0,0,1,164.64,50.3Z"/>
    <path class="cls-1"
          d="M187.39,34.28l3.39-4.33,8-8.68h8.77L196.22,33.64l12,16.15h-9L191,38.23l-3.34,2.68v8.88h-7.78V10.1h7.78V27.8l-.41,6.48Z"/>
    <path class="cls-1"
          d="M224.33,44.1a16.83,16.83,0,0,0,4.9-.89V49a17.43,17.43,0,0,1-7.14,1.3q-4.67,0-6.8-2.36t-2.13-7.08V27.11h-3.73V23.82l4.29-2.6,2.25-6h5v6.07h8v5.84h-8V40.86a3,3,0,0,0,.93,2.45A3.69,3.69,0,0,0,224.33,44.1Z"/>
    <path class="cls-1"
          d="M253.11,49.79l-1.5-3.88h-.21a11.47,11.47,0,0,1-4,3.43,13.05,13.05,0,0,1-5.42,1A8.78,8.78,0,0,1,235.47,48a9,9,0,0,1-2.36-6.69q0-4.54,3.17-6.69t9.58-2.39l4.95-.15V30.78q0-4.34-4.44-4.34a20.2,20.2,0,0,0-8,2.07l-2.58-5.26a23.18,23.18,0,0,1,10.92-2.58q5.74,0,8.8,2.5t3.06,7.6v19Zm-2.3-13.22-3,.1a9.68,9.68,0,0,0-5,1.22,3.85,3.85,0,0,0-1.66,3.42q0,3.29,3.77,3.29a6,6,0,0,0,4.33-1.56,5.47,5.47,0,0,0,1.62-4.13Z"/>
    <path class="cls-1"
          d="M266.22,13.9q0-3.8,4.23-3.8t4.24,3.8a3.7,3.7,0,0,1-1.06,2.82,4.45,4.45,0,0,1-3.18,1Q266.22,17.72,266.22,13.9Zm8.12,35.89h-7.78V21.27h7.78Z"/>
    <path class="cls-1" d="M290.28,49.79H282.5V10.1h7.78Z"/>
    <path class="cls-1"
          d="M328.46,18.54a8.06,8.06,0,0,0-6.91,3.36q-2.45,3.35-2.45,9.35,0,12.48,9.36,12.48a29.59,29.59,0,0,0,9.52-2v6.63a26.45,26.45,0,0,1-10.25,1.92q-8.14,0-12.45-4.94T311,31.19A23.16,23.16,0,0,1,313.08,21a15.32,15.32,0,0,1,6.08-6.71,18,18,0,0,1,9.3-2.33,25.11,25.11,0,0,1,10.92,2.62L336.83,21a41.24,41.24,0,0,0-4.21-1.74A12.56,12.56,0,0,0,328.46,18.54Z"/>
    <path class="cls-1" d="M353.08,49.79H345.3V10.1h7.78Z"/>
    <path class="cls-1"
          d="M387.17,35.48q0,7-3.67,10.89T373.26,50.3A14.35,14.35,0,0,1,366,48.5a12,12,0,0,1-4.82-5.17,17.35,17.35,0,0,1-1.69-7.86q0-7,3.65-10.87t10.25-3.88a14.42,14.42,0,0,1,7.24,1.79,11.9,11.9,0,0,1,4.83,5.13A17.17,17.17,0,0,1,387.17,35.48Zm-19.72,0a12,12,0,0,0,1.39,6.41,5,5,0,0,0,4.53,2.17,4.89,4.89,0,0,0,4.47-2.16,12.14,12.14,0,0,0,1.37-6.41q0-4.23-1.38-6.35a5.85,5.85,0,0,0-9,0Q367.44,31.22,367.45,35.48Z"/>
    <path class="cls-1"
          d="M413.8,49.79l-1-3.65h-.41a8.24,8.24,0,0,1-3.55,3.08,12.11,12.11,0,0,1-5.23,1.08q-5,0-7.58-2.69t-2.55-7.74V21.27h7.78V37.93a8,8,0,0,0,1.1,4.63,4,4,0,0,0,3.49,1.54,5.26,5.26,0,0,0,4.72-2.18Q412,39.74,412,34.69V21.27h7.78V49.79Z"/>
    <path class="cls-1"
          d="M437,50.3a9.28,9.28,0,0,1-7.9-3.9q-2.87-3.91-2.87-10.82t2.92-10.93a9.49,9.49,0,0,1,8-3.92,9.3,9.3,0,0,1,8.21,4.19h.25a31.85,31.85,0,0,1-.59-5.69V10.1h7.81v39.7h-6l-1.5-3.7h-.33A8.9,8.9,0,0,1,437,50.3Zm2.73-6.2a5.28,5.28,0,0,0,4.37-1.73q1.39-1.74,1.52-5.89v-.84q0-4.6-1.42-6.58a5.27,5.27,0,0,0-4.61-2,4.57,4.57,0,0,0-4,2.21,11.75,11.75,0,0,0-1.44,6.41q0,4.21,1.45,6.31A4.76,4.76,0,0,0,439.69,44.1Z"/>
    <path class="cls-1"
          d="M48.26,13.16a23.71,23.71,0,0,0-4.89.51,23.62,23.62,0,0,0-42.83,0l-.21.49a4.26,4.26,0,0,0,7.79,3.45h0A15.09,15.09,0,0,1,21.95,8.52h0A15.1,15.1,0,0,1,36.6,20l1.2,4.83,4.59-1.94a15.1,15.1,0,1,1,6.36,29h-38c-1.63,0-2.13,0-2.14-1.89v.11L27.86,31.28a4.26,4.26,0,0,0-3-7.31H4.29a4.26,4.26,0,1,0,0,8.52H14.42l-5.83,5.7-7.27,7.1a4.33,4.33,0,0,0-1.29,3v7.79a4.26,4.26,0,0,0,4.26,4.26h0v0H48.58l.44,0h.07a23.62,23.62,0,0,0-.83-47.22Z"/>
</svg>